<svg xmlns="http://www.w3.org/2000/svg" viewBox="0 0 140 150" role="img" aria-label="actor-ts">
  <defs>
    <linearGradient id="grad" x1="0" y1="0" x2="1" y2="1">
      <stop offset="0%" stop-color="#fcd34d"/>
      <stop offset="100%" stop-color="#ef4444"/>
    </linearGradient>
    <linearGradient id="ringGrad" x1="0" y1="0" x2="1" y2="1">
      <stop offset="0%" stop-color="#6366f1"/>
      <stop offset="100%" stop-color="#06b6d4"/>
    </linearGradient>
  </defs>

  <!-- Mesh of interconnected "actors" — same coordinates as the full logo,
       wordmark stripped, viewBox tightened to the mesh area so favicon
       renderers (16-32 px) keep the glyph legible. -->
  <g transform="translate(0, 14)" fill="none" stroke="url(#ringGrad)" stroke-width="4" stroke-linecap="round">
    <line x1="36"  y1="32"  x2="78"  y2="14"/>
    <line x1="36"  y1="32"  x2="14"  y2="78"/>
    <line x1="36"  y1="32"  x2="84"  y2="80"/>
    <line x1="78"  y1="14"  x2="108" y2="50"/>
    <line x1="84"  y1="80"  x2="108" y2="50"/>
    <line x1="14"  y1="78"  x2="84"  y2="80"/>
    <line x1="14"  y1="78"  x2="40"  y2="112"/>
    <line x1="40"  y1="112" x2="84"  y2="80"/>
    <line x1="40"  y1="112" x2="92"  y2="108"/>
    <line x1="92"  y1="108" x2="108" y2="50"/>
  </g>

  <g transform="translate(0, 14)" fill="url(#grad)" stroke="#1e293b" stroke-width="2">
    <circle cx="36"  cy="32"  r="11"/>
    <circle cx="78"  cy="14"  r="9"/>
    <circle cx="14"  cy="78"  r="10"/>
    <circle cx="108" cy="50"  r="12"/>
    <circle cx="84"  cy="80"  r="10"/>
    <circle cx="40"  cy="112" r="9"/>
    <circle cx="92"  cy="108" r="8"/>
  </g>
</svg>
