<svg xmlns="http://www.w3.org/2000/svg" viewBox="0 0 118 118" role="img" aria-label="actor-ts">
  <defs>
    <linearGradient id="grad" x1="0" y1="0" x2="1" y2="1">
      <stop offset="0%" stop-color="#fcd34d"/>
      <stop offset="100%" stop-color="#ef4444"/>
    </linearGradient>
    <linearGradient id="ringGrad" x1="0" y1="0" x2="1" y2="1">
      <stop offset="0%" stop-color="#6366f1"/>
      <stop offset="100%" stop-color="#06b6d4"/>
    </linearGradient>
  </defs>

  <!-- Mesh — content shifted so the bounding box starts at 0,0. -->
  <g fill="none" stroke="url(#ringGrad)" stroke-width="4" stroke-linecap="round">
    <line x1="33"  y1="28"  x2="75"  y2="10"/>
    <line x1="33"  y1="28"  x2="11"  y2="74"/>
    <line x1="33"  y1="28"  x2="81"  y2="76"/>
    <line x1="75"  y1="10"  x2="105" y2="46"/>
    <line x1="81"  y1="76"  x2="105" y2="46"/>
    <line x1="11"  y1="74"  x2="81"  y2="76"/>
    <line x1="11"  y1="74"  x2="37"  y2="108"/>
    <line x1="37"  y1="108" x2="81"  y2="76"/>
    <line x1="37"  y1="108" x2="89"  y2="104"/>
    <line x1="89"  y1="104" x2="105" y2="46"/>
  </g>

  <g fill="url(#grad)" stroke="#1e293b" stroke-width="2">
    <circle cx="33"  cy="28"  r="11"/>
    <circle cx="75"  cy="10"  r="9"/>
    <circle cx="11"  cy="74"  r="10"/>
    <circle cx="105" cy="46"  r="12"/>
    <circle cx="81"  cy="76"  r="10"/>
    <circle cx="37"  cy="108" r="9"/>
    <circle cx="89"  cy="104" r="8"/>
  </g>
</svg>
